<svg width="60" height="13" viewBox="0 0 60 13" fill="none" xmlns="http://www.w3.org/2000/svg">
<path d="M4.67228 12.0023C7.05628 12.0023 8.96028 10.4663 8.96028 7.61827V0.482265H6.76828V7.61827C6.76828 9.39427 5.66428 9.93827 4.67228 9.93827C3.66428 9.93827 2.57628 9.39427 2.57628 7.61827V0.482265H0.384277V7.61827C0.384277 10.4663 2.28828 12.0023 4.67228 12.0023Z" fill="white"/>
<path d="M10.5718 11.8423H12.7638V8.19427H14.5878C17.0518 8.19427 18.6518 6.65827 18.6518 4.33827C18.6518 2.01827 17.0518 0.482265 14.5878 0.482265H10.5718V11.8423ZM12.7638 6.17827V2.49827H14.3958C15.5798 2.49827 16.4278 3.02627 16.4278 4.33827C16.4278 5.66627 15.5798 6.17827 14.3958 6.17827H12.7638Z" fill="white"/>
<path d="M19.9624 11.8423H26.5864V9.82627H22.1544V0.482265H19.9624V11.8423Z" fill="white"/>
<path d="M32.7205 12.0023C35.8885 12.0023 38.5765 9.65027 38.5765 6.16227C38.5765 2.67427 35.8885 0.322266 32.7205 0.322266C29.5525 0.322266 26.8805 2.67427 26.8805 6.16227C26.8805 9.65027 29.5525 12.0023 32.7205 12.0023ZM29.1205 6.16227C29.1205 3.87427 30.7845 2.40227 32.7205 2.40227C34.6725 2.40227 36.3205 3.87427 36.3205 6.16227C36.3205 8.45027 34.6725 9.92227 32.7205 9.92227C30.7845 9.92227 29.1205 8.45027 29.1205 6.16227Z" fill="white"/>
<path d="M42.706 0.482265L38.338 11.8423H40.706L41.458 9.79427H46.29L47.042 11.8423H49.41L45.026 0.482265H42.706ZM42.194 7.77827L43.874 3.21827L45.554 7.77827H42.194Z" fill="white"/>
<path d="M50.3999 11.8423H54.5119C57.6479 11.8423 59.9999 9.50627 59.9999 6.16227C59.9999 2.81827 57.6479 0.482265 54.5119 0.482265H50.3999V11.8423ZM52.5919 9.77827V2.54627H54.4319C56.5919 2.54627 57.7119 4.01827 57.7119 6.16227C57.7119 8.30627 56.5919 9.77827 54.4319 9.77827H52.5919Z" fill="white"/>
</svg>
