<svg width="78" height="13" viewBox="0 0 78 13" fill="none" xmlns="http://www.w3.org/2000/svg">
<path d="M0.276367 11.8423H2.46837V7.07427H6.37237V5.20227H2.46837V2.48227H6.66037V0.482265H0.276367V11.8423Z" fill="#234650"/>
<path d="M10.645 0.482265L6.27699 11.8423H8.64499L9.39699 9.79427H14.229L14.981 11.8423H17.349L12.965 0.482265H10.645ZM10.133 7.77827L11.813 3.21827L13.493 7.77827H10.133Z" fill="#234650"/>
<path d="M19.9125 11.8423H22.2325L26.6165 0.482265H24.2485L21.0805 9.10627L17.9125 0.482265H15.5445L19.9125 11.8423Z" fill="#234650"/>
<path d="M32.3157 12.0023C35.4837 12.0023 38.1717 9.65027 38.1717 6.16227C38.1717 2.67427 35.4837 0.322266 32.3157 0.322266C29.1477 0.322266 26.4757 2.67427 26.4757 6.16227C26.4757 9.65027 29.1477 12.0023 32.3157 12.0023ZM28.7157 6.16227C28.7157 3.87427 30.3797 2.40227 32.3157 2.40227C34.2677 2.40227 35.9157 3.87427 35.9157 6.16227C35.9157 8.45027 34.2677 9.92227 32.3157 9.92227C30.3797 9.92227 28.7157 8.45027 28.7157 6.16227Z" fill="#234650"/>
<path d="M45.8441 11.8423H48.1801L45.5241 7.71427C46.8361 7.15427 47.6201 5.97027 47.6201 4.33827C47.6201 2.01827 46.0201 0.482265 43.6041 0.482265H39.6201V11.8423H41.8121V8.08227H43.5081L45.8441 11.8423ZM41.8121 6.17827V2.49827H43.3801C44.5801 2.49827 45.3961 3.02627 45.3961 4.33827C45.3961 5.66627 44.5801 6.17827 43.3801 6.17827H41.8121Z" fill="#234650"/>
<path d="M49.3232 11.8423H51.5152V0.482265H49.3232V11.8423Z" fill="#234650"/>
<path d="M55.4717 11.8423H57.6637V2.49827H60.3997V0.482265H52.7357V2.49827H55.4717V11.8423Z" fill="#234650"/>
<path d="M61.6201 11.8423H68.1961V9.82627H63.8121V7.12227H67.3801V5.13827H63.8121V2.49827H68.0521V0.482265H61.6201V11.8423Z" fill="#234650"/>
<path d="M73.1732 12.0023C75.0772 12.0023 77.0932 10.8823 77.0932 8.57827C77.0932 6.96227 76.1012 6.06627 74.1172 5.26627L73.3492 4.96227C72.1012 4.48227 71.7652 4.01827 71.7652 3.42627C71.7652 2.67427 72.3732 2.27427 73.1892 2.27427C74.0212 2.27427 74.6452 2.72227 75.1252 3.63427L76.7572 2.72227C76.2452 1.52227 75.0612 0.322266 73.1092 0.322266C71.1892 0.322266 69.6052 1.50627 69.6052 3.41027C69.6052 5.13827 70.8852 6.00227 72.4372 6.62627L73.1572 6.89827C74.3092 7.36227 74.8052 7.73027 74.8052 8.56227C74.8052 9.55427 74.0372 10.0183 73.1412 10.0183C71.9892 10.0183 71.2692 9.23427 70.9492 8.35427L69.1732 9.17027C69.5732 10.8343 71.1892 12.0023 73.1732 12.0023Z" fill="#234650"/>
</svg>
