<svg width="59" height="13" viewBox="0 0 59 13" fill="none" xmlns="http://www.w3.org/2000/svg">
<path d="M0.942871 11.8423H3.13487V8.19427H4.95887C7.42287 8.19427 9.02287 6.65827 9.02287 4.33827C9.02287 2.01827 7.42287 0.482265 4.95887 0.482265H0.942871V11.8423ZM3.13487 6.17827V2.49827H4.76687C5.95087 2.49827 6.79887 3.02627 6.79887 4.33827C6.79887 5.66627 5.95087 6.17827 4.76687 6.17827H3.13487Z" fill="#234650"/>
<path d="M16.5575 11.8423H18.8935L16.2375 7.71427C17.5495 7.15427 18.3335 5.97027 18.3335 4.33827C18.3335 2.01827 16.7335 0.482265 14.3175 0.482265H10.3335V11.8423H12.5255V8.08227H14.2215L16.5575 11.8423ZM12.5255 6.17827V2.49827H14.0935C15.2935 2.49827 16.1095 3.02627 16.1095 4.33827C16.1095 5.66627 15.2935 6.17827 14.0935 6.17827H12.5255Z" fill="#234650"/>
<path d="M25.1541 12.0023C28.3221 12.0023 31.0101 9.65027 31.0101 6.16227C31.0101 2.67427 28.3221 0.322266 25.1541 0.322266C21.9861 0.322266 19.3141 2.67427 19.3141 6.16227C19.3141 9.65027 21.9861 12.0023 25.1541 12.0023ZM21.5541 6.16227C21.5541 3.87427 23.2181 2.40227 25.1541 2.40227C27.1061 2.40227 28.7541 3.87427 28.7541 6.16227C28.7541 8.45027 27.1061 9.92227 25.1541 9.92227C23.2181 9.92227 21.5541 8.45027 21.5541 6.16227Z" fill="#234650"/>
<path d="M32.4585 11.8423H34.6505V7.07427H38.5545V5.20227H34.6505V2.48227H38.8425V0.482265H32.4585V11.8423Z" fill="#234650"/>
<path d="M40.2241 11.8423H42.4161V0.482265H40.2241V11.8423Z" fill="#234650"/>
<path d="M44.0366 11.8423H50.6606V9.82627H46.2286V0.482265H44.0366V11.8423Z" fill="#234650"/>
<path d="M51.9585 11.8423H58.5345V9.82627H54.1505V7.12227H57.7185V5.13827H54.1505V2.49827H58.3905V0.482265H51.9585V11.8423Z" fill="#234650"/>
</svg>
