<svg width="69" height="13" viewBox="0 0 69 13" fill="none" xmlns="http://www.w3.org/2000/svg">
<path d="M4.288 12.0023C6.672 12.0023 8.576 10.4663 8.576 7.61827V0.482265H6.384V7.61827C6.384 9.39427 5.28 9.93827 4.288 9.93827C3.28 9.93827 2.192 9.39427 2.192 7.61827V0.482265H0V7.61827C0 10.4663 1.904 12.0023 4.288 12.0023Z" fill="#234650"/>
<path d="M10.1875 11.8423H12.3795V8.19427H14.2035C16.6675 8.19427 18.2675 6.65827 18.2675 4.33827C18.2675 2.01827 16.6675 0.482265 14.2035 0.482265H10.1875V11.8423ZM12.3795 6.17827V2.49827H14.0115C15.1955 2.49827 16.0435 3.02627 16.0435 4.33827C16.0435 5.66627 15.1955 6.17827 14.0115 6.17827H12.3795Z" fill="#234650"/>
<path d="M19.5781 11.8423H26.2021V9.82627H21.7701V0.482265H19.5781V11.8423Z" fill="#234650"/>
<path d="M32.3363 12.0023C35.5042 12.0023 38.1922 9.65027 38.1922 6.16227C38.1922 2.67427 35.5042 0.322266 32.3363 0.322266C29.1683 0.322266 26.4963 2.67427 26.4963 6.16227C26.4963 9.65027 29.1683 12.0023 32.3363 12.0023ZM28.7362 6.16227C28.7362 3.87427 30.4002 2.40227 32.3363 2.40227C34.2882 2.40227 35.9362 3.87427 35.9362 6.16227C35.9362 8.45027 34.2882 9.92227 32.3363 9.92227C30.4002 9.92227 28.7362 8.45027 28.7362 6.16227Z" fill="#234650"/>
<path d="M42.3218 0.482265L37.9538 11.8423H40.3218L41.0737 9.79427H45.9058L46.6577 11.8423H49.0257L44.6418 0.482265H42.3218ZM41.8097 7.77827L43.4897 3.21827L45.1698 7.77827H41.8097Z" fill="#234650"/>
<path d="M50.0156 11.8423H54.1276C57.2636 11.8423 59.6156 9.50627 59.6156 6.16227C59.6156 2.81827 57.2636 0.482265 54.1276 0.482265H50.0156V11.8423ZM52.2076 9.77827V2.54627H54.0476C56.2076 2.54627 57.3276 4.01827 57.3276 6.16227C57.3276 8.30627 56.2076 9.77827 54.0476 9.77827H52.2076Z" fill="#234650"/>
<path d="M64.5062 12.0023C66.4102 12.0023 68.4262 10.8823 68.4262 8.57827C68.4262 6.96227 67.4342 6.06627 65.4502 5.26627L64.6823 4.96227C63.4342 4.48227 63.0983 4.01827 63.0983 3.42627C63.0983 2.67427 63.7062 2.27427 64.5222 2.27427C65.3542 2.27427 65.9782 2.72227 66.4583 3.63427L68.0902 2.72227C67.5782 1.52227 66.3943 0.322266 64.4423 0.322266C62.5223 0.322266 60.9383 1.50627 60.9383 3.41027C60.9383 5.13827 62.2182 6.00227 63.7702 6.62627L64.4902 6.89827C65.6423 7.36227 66.1383 7.73027 66.1383 8.56227C66.1383 9.55427 65.3703 10.0183 64.4743 10.0183C63.3223 10.0183 62.6022 9.23427 62.2822 8.35427L60.5062 9.17027C60.9062 10.8343 62.5222 12.0023 64.5062 12.0023Z" fill="#234650"/>
</svg>
